<?xml version="1.0" encoding="UTF-8"?>
<svg id="Layer_2" data-name="Layer 2" xmlns="http://www.w3.org/2000/svg" viewBox="0 0 300 300">
  <defs>
    <style>
      .cls-1 {
        fill: #458cec;
      }
    </style>
  </defs>
  <path class="cls-1" d="M292.7,135.65c-.15-.87-.33-1.77-.51-2.64h-13.93l-132.34.18,9.27,20.49-53.01-.33c3.82,1.72,85.63,41.13,88.17,42.35l-8.76-24.48,23.71-.18,12.6-.08,6.61-.05v.92c-.72,2.46-1.56,4.87-2.51,7.2-1.54,3.79-3.3,7.45-5.4,10.81-13.49,22.64-38.28,37.82-66.55,37.82-42.94,0-77.64-34.77-77.64-77.62s34.7-77.69,77.64-77.69c24.2,0,45.84,11.09,60.07,28.48h74.67C264.73,45.77,211.93,6.51,150.04,6.51,70.81,6.51,6.59,70.73,6.59,149.96s64.22,143.53,143.45,143.53c71.75,0,131.24-52.78,141.74-121.66l.1-.87c1.02-6.84,1.54-13.85,1.54-20.97,0-4.84-.23-9.63-.72-14.34Z"/>
</svg>